<?xml version="1.0" encoding="UTF-8" standalone="no"?>
<!-- Created with Inkscape (http://www.inkscape.org/) -->

<svg
   width="210mm"
   height="297mm"
   viewBox="0 0 210 297"
   version="1.1"
   id="svg402"
   inkscape:version="1.1.2 (b8e25be833, 2022-02-05)"
   sodipodi:docname="pami1.svg"
   xmlns:inkscape="http://www.inkscape.org/namespaces/inkscape"
   xmlns:sodipodi="http://sodipodi.sourceforge.net/DTD/sodipodi-0.dtd"
   xmlns="http://www.w3.org/2000/svg"
   xmlns:svg="http://www.w3.org/2000/svg">
  <sodipodi:namedview
     id="namedview404"
     pagecolor="#ffffff"
     bordercolor="#666666"
     borderopacity="1.0"
     inkscape:pageshadow="2"
     inkscape:pageopacity="0.0"
     inkscape:pagecheckerboard="0"
     inkscape:document-units="mm"
     showgrid="false"
     inkscape:zoom="5.6568545"
     inkscape:cx="146.98982"
     inkscape:cy="45.608385"
     inkscape:window-width="1920"
     inkscape:window-height="1017"
     inkscape:window-x="-8"
     inkscape:window-y="-8"
     inkscape:window-maximized="1"
     inkscape:current-layer="g506" />
  <defs
     id="defs399" />
  <g
     inkscape:label="Calque 1"
     inkscape:groupmode="layer"
     id="layer1">
    <g
       transform="matrix(0.02733169,0,0,-0.02733169,-1.2420333,27.791535)"
       fill="#000000"
       stroke="none"
       id="g506">
      <path
         id="path488"
         style="stroke-width:0.0649936"
         d="M 150.26953 7.7675781 C 140.93371 7.7546655 131.61048 8.2981533 130.73242 9.3828125 C 128.76971 11.655432 130.734 14.34103 138.06836 19.609375 C 148.19185 26.737135 148.29428 27.046886 147.98438 36.447266 L 147.67383 44.503906 L 138.37695 48.636719 C 131.35249 51.735745 114.86512 45.564668 110.11328 45.667969 C 104.01853 45.874571 106.37732 49.978475 109.37305 51.837891 C 113.09188 54.213811 130.70447 56.901244 139.32031 52.908203 L 150.46289 48.119141 L 159.9668 52.251953 C 170.60679 56.900493 185.29398 52.800822 188.59961 50.941406 C 192.30837 49.034171 194.12405 45.548613 188.0293 45.445312 C 183.89726 45.445312 171.20877 50.497995 165.1875 48.769531 C 160.00862 47.764174 154.07879 45.125 153.45898 45.125 C 152.63258 45.125 152.3227 42.335651 152.5293 35.621094 L 152.83984 26.013672 L 158.00391 22.398438 C 160.79303 20.435721 164.92638 17.02674 167.0957 14.857422 C 170.50463 11.655095 170.91777 10.725939 169.88477 9.4863281 C 168.95506 8.3500185 159.60535 7.7804907 150.26953 7.7675781 z M 78.847656 10.179688 C 76.70104 10.218416 74.399743 10.321582 71.824219 10.480469 C 67.43752 10.798242 60.856754 11.561718 57.201172 12.197266 C 51.485171 13.150586 50.554687 13.531953 50.554688 14.548828 C 50.554688 15.37504 50.952595 15.757071 51.550781 15.566406 C 63.44804 12.897109 65.243258 12.705078 79.466797 12.705078 C 92.693359 12.705078 94.15538 12.832109 99.539062 14.357422 C 104.52394 15.692071 105.38837 15.820352 105.7207 14.994141 C 106.25242 13.595937 105.52103 13.341719 97.212891 11.816406 C 90.333749 10.529423 85.287505 10.063502 78.847656 10.179688 z M 216.05664 10.716797 C 213.74635 10.765373 211.69465 10.918661 209.91016 11.177734 C 204.94755 11.848272 194.88659 13.554173 193.45898 13.919922 C 192.23533 14.224712 191.6916 15.992188 192.7793 15.992188 C 193.05122 15.992188 196.04199 15.443565 199.37305 14.833984 C 209.84211 12.822366 217.65908 12.214226 225.88477 12.884766 C 234.3144 13.555304 243.96902 14.956311 246.82422 15.931641 C 249.54345 16.846012 250.01953 16.784849 250.01953 15.382812 C 250.01953 13.980776 250.01872 13.981189 243.56055 13.005859 C 232.24173 11.359993 222.9875 10.571068 216.05664 10.716797 z M 117.69141 18.494141 A 1.5026019 1.4142136 0 0 0 116.18945 19.908203 A 1.5026019 1.4142136 0 0 0 117.69141 21.322266 A 1.5026019 1.4142136 0 0 0 119.19336 19.908203 A 1.5026019 1.4142136 0 0 0 117.69141 18.494141 z M 178.13477 19.058594 A 1.5026019 1.4142136 0 0 0 176.63281 20.472656 A 1.5026019 1.4142136 0 0 0 178.13477 21.886719 A 1.5026019 1.4142136 0 0 0 179.63867 20.472656 A 1.5026019 1.4142136 0 0 0 178.13477 19.058594 z M 93.957031 19.378906 C 88.706285 19.442461 82.191868 19.695898 79.466797 20.013672 C 71.092191 20.903437 60.258489 23.192499 52.880859 25.480469 C 44.506252 28.149768 37.59375 31.073125 37.59375 31.962891 C 37.59375 33.42465 39.123478 33.29711 43.044922 31.517578 C 49.159714 28.784726 60.590835 25.417461 70.494141 23.447266 C 77.273584 22.112616 81.792361 21.666329 91.296875 21.412109 C 100.86786 21.094336 103.39453 20.840625 103.39453 20.205078 C 103.39453 19.505976 101.53405 19.315351 93.957031 19.378906 z M 204.87891 19.650391 C 196.3813 19.650391 194.27539 19.833367 194.27539 20.503906 C 194.27539 21.113488 196.85763 21.357319 206.71484 21.662109 C 225.81748 22.149774 245.39638 25.989922 256.95312 31.537109 C 259.40044 32.695313 261.57574 33.427014 261.84766 33.244141 C 263.07132 32.146894 261.77932 30.98931 257.22461 29.099609 C 242.26881 23.003798 223.70961 19.650391 204.87891 19.650391 z M 111.68164 20.261719 A 1.5026019 1.4142136 0 0 0 110.17773 21.675781 A 1.5026019 1.4142136 0 0 0 111.68164 23.089844 A 1.5026019 1.4142136 0 0 0 113.18359 21.675781 A 1.5026019 1.4142136 0 0 0 111.68164 20.261719 z M 184.4375 22.830078 A 1.5026019 1.4142136 0 0 0 182.93555 24.244141 A 1.5026019 1.4142136 0 0 0 184.4375 25.660156 A 1.5026019 1.4142136 0 0 0 185.93945 24.244141 A 1.5026019 1.4142136 0 0 0 184.4375 22.830078 z M 173.75586 23.050781 A 1.5026019 1.4142136 0 0 0 172.25195 24.464844 A 1.5026019 1.4142136 0 0 0 173.75586 25.878906 A 1.5026019 1.4142136 0 0 0 175.25781 24.464844 A 1.5026019 1.4142136 0 0 0 173.75586 23.050781 z M 120.43164 23.267578 A 1.5026019 1.4142136 0 0 0 118.92773 24.681641 A 1.5026019 1.4142136 0 0 0 120.43164 26.095703 A 1.5026019 1.4142136 0 0 0 121.93359 24.681641 A 1.5026019 1.4142136 0 0 0 120.43164 23.267578 z M 101.69922 24.519531 C 100.453 24.654585 98.442428 25.099569 95.085938 25.925781 C 81.593515 29.294181 66.706206 36.0298 54.410156 44.355469 C 51.751551 46.135001 49.556641 47.978047 49.556641 48.359375 C 49.556641 49.566915 50.953017 49.313478 53.279297 47.724609 C 60.191671 42.958005 65.775843 39.780236 74.083984 35.839844 C 83.654964 31.263903 87.641911 29.86504 97.212891 27.640625 C 103.26122 26.305976 104.25828 25.862423 103.72656 24.972656 C 103.42747 24.559551 102.94544 24.384477 101.69922 24.519531 z M 194.03711 24.611328 C 193.61223 24.710385 193.5945 24.983809 193.73047 25.501953 C 193.86643 26.416324 194.81858 26.7831 198.01367 27.087891 C 208.55071 28.307053 228.33319 35.804784 241.52148 43.607422 C 245.26043 45.862873 248.72726 47.99558 249.20312 48.361328 C 249.95091 48.909951 250.08675 48.789064 249.88281 47.630859 C 249.61088 45.6802 238.32686 38.851155 227.92578 34.279297 C 216.09711 29.158816 205.62658 25.929688 196.78906 24.771484 C 195.29348 24.58861 194.46199 24.512271 194.03711 24.611328 z M 114.68555 25.300781 A 1.5026019 1.4142136 0 0 0 113.18359 26.714844 A 1.5026019 1.4142136 0 0 0 114.68555 28.128906 A 1.5026019 1.4142136 0 0 0 116.18945 26.714844 A 1.5026019 1.4142136 0 0 0 114.68555 25.300781 z M 179.1875 26.451172 A 1.5026019 1.4142136 0 0 0 177.68555 27.865234 A 1.5026019 1.4142136 0 0 0 179.1875 29.279297 A 1.5026019 1.4142136 0 0 0 180.68945 27.865234 A 1.5026019 1.4142136 0 0 0 179.1875 26.451172 z M 193.94336 29.632812 C 193.69693 29.72425 193.5957 29.952611 193.5957 30.318359 C 193.5957 30.866982 194.88718 31.780221 196.72266 32.511719 C 198.49015 33.182257 201.27667 34.52467 202.9082 35.5 C 204.60773 36.536288 207.05482 37.876748 208.48242 38.486328 C 216.23224 42.021899 231.73159 54.39689 238.59766 62.443359 C 241.18092 65.552223 243.08461 67.197266 243.90039 67.197266 C 244.64818 67.197266 245.25977 66.95477 245.25977 66.710938 C 245.25977 64.882194 231.11978 51.16489 223.16602 45.251953 C 215.21225 39.399975 200.46071 31.232526 195.1582 29.769531 C 194.58036 29.586657 194.18979 29.541375 193.94336 29.632812 z M 103.42773 29.960938 C 102.51384 30.135713 101.06829 30.755507 98.941406 31.835938 C 96.482198 33.107032 93.557641 34.567734 92.427734 35.076172 C 78.802381 41.558753 49.624794 69.523437 56.470703 69.523438 C 56.935959 69.523438 58.463607 67.871642 59.859375 65.837891 C 63.514956 60.499294 78.735945 46.390394 85.78125 41.814453 C 89.104506 39.653593 94.688227 36.411446 98.277344 34.568359 C 101.8 32.788827 104.72461 31.010079 104.72461 30.755859 C 104.72461 30.056758 104.34163 29.786162 103.42773 29.960938 z M 136.00586 56.082031 C 134.8029 56.078441 134.73684 56.084423 133.375 56.273438 C 130.83611 56.625803 130.23073 56.674413 128.97461 56.634766 C 128.28206 56.612882 127.96807 56.623397 127.64844 56.675781 C 127.41795 56.713539 127.0304 56.776948 126.78711 56.816406 C 126.18369 56.914258 124.16962 57.078635 123.58789 57.078125 L 123.11328 57.078125 L 123.13867 57.251953 C 123.18753 57.590398 123.28475 57.900054 123.54297 58.546875 C 123.8601 59.341275 123.91469 59.573949 124.03711 60.613281 C 124.15052 61.576029 124.16739 61.644114 124.46484 62.351562 C 124.72882 62.97944 124.82266 63.370787 124.99414 64.574219 C 125.19117 65.957027 125.37826 66.757894 126.06836 69.15625 C 126.31084 69.998975 126.60475 71.065576 126.7207 71.527344 C 126.84839 72.035822 127.0418 72.643692 127.21094 73.068359 C 127.36453 73.454015 127.69633 74.472197 127.94922 75.330078 C 128.48464 77.146349 128.86091 78.274483 129.38672 79.644531 C 130.06708 81.417288 130.63751 83.523618 130.76953 84.751953 L 130.79883 85.023438 L 131.13086 84.990234 C 131.31439 84.972584 131.64367 84.928609 131.86133 84.890625 C 132.64025 84.7546 132.82624 84.73725 133.54492 84.736328 C 134.36879 84.73527 134.98305 84.786581 135.79492 84.925781 C 136.15256 84.987085 136.73176 85.036799 137.40234 85.0625 C 138.52791 85.105473 138.64242 85.119963 139.45898 85.337891 C 139.95876 85.471195 140.04623 85.480409 140.78125 85.478516 C 141.21434 85.477382 141.68531 85.496539 141.82617 85.521484 L 141.82422 85.523438 C 141.97469 85.549894 142.57192 85.557268 143.26953 85.541016 C 143.92254 85.526049 144.83202 85.506803 145.29297 85.5 C 145.87136 85.491647 146.33334 85.45698 146.7832 85.386719 C 147.14173 85.330744 147.71512 85.27375 148.05664 85.259766 C 148.54752 85.239432 148.68391 85.219017 148.70508 85.164062 C 148.73256 85.092391 148.68451 84.67182 148.54883 83.78125 C 148.48204 83.341823 148.47014 82.799184 148.46484 79.962891 C 148.45872 76.675919 148.45712 76.649573 148.32812 75.492188 C 148.21323 74.460494 148.20326 74.23025 148.23047 73.466797 C 148.26229 72.57535 148.25754 72.536397 148.03516 71.373047 C 147.96709 71.018629 147.96044 70.340517 147.96875 64.894531 C 147.97793 59.13644 147.95453 56.96816 147.87891 56.845703 C 147.86057 56.816034 147.64881 56.761018 147.4082 56.722656 C 147.16759 56.684294 146.62372 56.586326 146.20117 56.505859 C 145.46393 56.365677 145.38438 56.360033 144.22266 56.359375 C 143.55684 56.358997 142.46855 56.367126 141.80273 56.376953 C 140.92275 56.39003 140.37615 56.373125 139.80078 56.318359 C 137.67756 56.116306 137.18145 56.085508 136.00586 56.082031 z M 158.64453 56.244141 C 155.61453 56.244509 153.09687 56.32685 152.13477 56.519531 C 150.80326 56.786192 150.68939 57.542782 150.67578 66.263672 C 150.66955 70.18924 150.54333 76.05717 150.39453 79.304688 L 150.125 85.208984 L 152.56641 85.345703 C 153.90995 85.42084 155.60077 85.428365 156.32422 85.363281 C 157.04767 85.298194 159.36559 85.078389 161.47461 84.873047 C 163.58363 84.667743 165.80744 84.598965 166.41602 84.720703 C 167.4326 84.924019 167.54376 84.839873 167.7793 83.681641 C 167.92031 82.988264 168.85639 79.883701 169.85938 76.783203 C 171.89521 70.489825 172.39492 68.68446 173.60352 63.253906 C 174.06354 61.186913 174.59232 59.002333 174.7793 58.400391 C 174.96612 57.798452 175.04164 57.22914 174.94727 57.134766 C 174.45305 56.640535 165.31053 56.243331 158.64453 56.244141 z "
         transform="matrix(9.6804601,0,0,-9.6804601,45.442975,1016.8246)" />
    </g>
  </g>
</svg>
